<svg width="30" height="30" viewBox="0 0 30 30" fill="none" xmlns="http://www.w3.org/2000/svg">
<g id="ph:list-fill">
<path id="Vector" d="M26.25 14.0625V15.9375C26.25 16.1861 26.1512 16.4246 25.9754 16.6004C25.7996 16.7762 25.5611 16.875 25.3125 16.875H4.6875C4.43886 16.875 4.2004 16.7762 4.02459 16.6004C3.84877 16.4246 3.75 16.1861 3.75 15.9375V14.0625C3.75 13.8139 3.84877 13.5754 4.02459 13.3996C4.2004 13.2238 4.43886 13.125 4.6875 13.125H25.3125C25.5611 13.125 25.7996 13.2238 25.9754 13.3996C26.1512 13.5754 26.25 13.8139 26.25 14.0625ZM25.3125 20.625H4.6875C4.43886 20.625 4.2004 20.7238 4.02459 20.8996C3.84877 21.0754 3.75 21.3139 3.75 21.5625V23.4375C3.75 23.6861 3.84877 23.9246 4.02459 24.1004C4.2004 24.2762 4.43886 24.375 4.6875 24.375H25.3125C25.5611 24.375 25.7996 24.2762 25.9754 24.1004C26.1512 23.9246 26.25 23.6861 26.25 23.4375V21.5625C26.25 21.3139 26.1512 21.0754 25.9754 20.8996C25.7996 20.7238 25.5611 20.625 25.3125 20.625ZM25.3125 5.625H4.6875C4.43886 5.625 4.2004 5.72377 4.02459 5.89959C3.84877 6.0754 3.75 6.31386 3.75 6.5625V8.4375C3.75 8.68614 3.84877 8.9246 4.02459 9.10041C4.2004 9.27623 4.43886 9.375 4.6875 9.375H25.3125C25.5611 9.375 25.7996 9.27623 25.9754 9.10041C26.1512 8.9246 26.25 8.68614 26.25 8.4375V6.5625C26.25 6.31386 26.1512 6.0754 25.9754 5.89959C25.7996 5.72377 25.5611 5.625 25.3125 5.625Z" fill="#1B1508"/>
</g>
</svg>
